<?xml version="1.0" standalone="no"?><!DOCTYPE svg PUBLIC "-//W3C//DTD SVG 1.1//EN" "http://www.w3.org/Graphics/SVG/1.1/DTD/svg11.dtd"><svg width="200" height="200" viewBox="0 0 200 200" version="1.1" xmlns="http://www.w3.org/2000/svg" xmlns:xlink="http://www.w3.org/1999/xlink"><defs><style type="text/css"><![CDATA[

]]></style></defs><g class="transform-group"><g transform="scale(0.1953125, 0.1953125)"><path d="M511.459556 625.806222c0.170667 0 0.369778 0.028444 0.540444 0.028444 0.199111 0 0.369778-0.028444 0.568889-0.028444C731.904 626.119111 910.222222 804.608 910.222222 1024l85.333333 0c0-205.738667-128.711111-381.013333-309.845333-450.872889C769.621333 517.006222 824.888889 421.461333 824.888889 312.945778c0-172.8-140.088889-312.888889-312.888889-312.888889-172.771556 0-312.888889 140.088889-312.888889 312.888889 0 108.487111 55.267556 204.060444 139.178667 260.181333C157.155556 642.958222 28.444444 818.261333 28.444444 1024l85.333333 0C113.777778 804.608 292.152889 626.119111 511.459556 625.806222zM284.444444 312.945778c0-125.468444 102.058667-227.555556 227.555556-227.555556s227.555556 102.087111 227.555556 227.555556c0 125.297778-101.774222 227.214222-226.986667 227.527111C512.369778 540.472889 512.199111 540.444444 512 540.444444s-0.369778 0.028444-0.568889 0.028444C386.247111 540.16 284.444444 438.243556 284.444444 312.945778z" fill="#272636"></path></g></g></svg>